<svg xmlns="http://www.w3.org/2000/svg" xmlns:xlink="http://www.w3.org/1999/xlink" viewBox="0 0 300 129.79"><defs><style>.cls-1{isolation:isolate;}.cls-2{fill:url(#Degradado_sin_nombre_7);}.cls-3{fill:#dfdfdf;mix-blend-mode:soft-light;}.cls-4{fill:#1a1a1a;}.cls-5{fill:#e44142;}.cls-6{fill:#fefdfa;}</style><linearGradient id="Degradado_sin_nombre_7" x1="239.67" y1="82.93" x2="239.67" y2="5.11" gradientUnits="userSpaceOnUse"><stop offset="0" stop-color="#fefdfa"/><stop offset="1" stop-color="#dfdfdf"/></linearGradient></defs><g class="cls-1"><g id="Layer_1" data-name="Layer 1"><path class="cls-2" d="M265.2,21.42s-4.59-18.74-28.49-16S215,25.3,215,25.3s-8.4-9-16.72-8.28-21.71,3.35-23.67,20.66,7.09,29.91,32.5,30.06c0,0,6.83,13.52,17.78,15a26,26,0,0,0,21.53-7.16s8.92,10,22.18,6c14.57-4.37,12.34-16.42,12.34-16.42S308.18,63,304.69,38.56,281.05,13.63,265.2,21.42Z" transform="translate(-5 -5.11)"/><path class="cls-3" d="M174.6,41.4c2-17.31,15.35-20,23.67-20.66S215,29,215,29,212.8,11.78,236.71,9.09,265.2,25.14,265.2,25.14c15.85-7.79,36-7.35,39.49,17.14.11.77.19,1.53.24,2.26a28,28,0,0,0-.24-6c-3.49-24.49-23.64-24.93-39.49-17.14,0,0-4.59-18.74-28.49-16S215,25.3,215,25.3s-8.4-9-16.72-8.28-21.71,3.35-23.67,20.66a37.45,37.45,0,0,0-.21,6.3C174.44,43.13,174.5,42.27,174.6,41.4Z" transform="translate(-5 -5.11)"/><path class="cls-4" d="M211,43.09h0c-4.63,0-7.75-5.64-7.89-5.88a1.25,1.25,0,0,1,.5-1.68,1.22,1.22,0,0,1,1.67.49c.7,1.28,3.1,4.59,5.73,4.6h0c2.4,0,4.46-2.77,5.76-5.09a1.23,1.23,0,1,1,2.15,1.2C216.53,41,213.87,43.09,211,43.09Z" transform="translate(-5 -5.11)"/><path class="cls-4" d="M274.68,45c-5.57,0-10-5.27-10.2-5.5a1.23,1.23,0,0,1,.16-1.74,1.25,1.25,0,0,1,1.74.16c.06.08,4.13,4.86,8.66,4.6,2.39-.13,4.58-1.68,6.51-4.61a1.25,1.25,0,0,1,1.72-.34,1.23,1.23,0,0,1,.34,1.71c-2.39,3.61-5.23,5.53-8.45,5.71Z" transform="translate(-5 -5.11)"/><circle class="cls-4" cx="239.37" cy="39.23" r="2.86"/><path class="cls-4" d="M244.79,55.79a17.81,17.81,0,0,1-7.24-1.71,1.23,1.23,0,0,1,1.1-2.21h0c.07,0,7.13,3.48,11.32-.42a1.24,1.24,0,1,1,1.69,1.81A9.8,9.8,0,0,1,244.79,55.79Z" transform="translate(-5 -5.11)"/><path class="cls-5" d="M212.17,54.52c-.13,2.63-2.57,4.65-5.64,4.6-3.82,0-5.81-2.53-5.68-5.15.15-3.13,3.52-4.5,6.15-4.37S212.29,51.89,212.17,54.52Z" transform="translate(-5 -5.11)"/><path class="cls-5" d="M281,53.55c.17,2.62-2,4.91-5.07,5.21-3.8.39-6.07-1.84-6.24-4.47-.21-3.11,3-4.86,5.61-5S280.8,50.92,281,53.55Z" transform="translate(-5 -5.11)"/><path class="cls-6" d="M34.38,61.48A30.78,30.78,0,0,1,19.26,58a23.81,23.81,0,0,1-9.65-9.81A31.25,31.25,0,0,1,6.23,33.25a33.5,33.5,0,0,1,1.9-11.59,24.43,24.43,0,0,1,5.55-8.84,25,25,0,0,1,8.88-5.7,32.78,32.78,0,0,1,11.82-2,33.6,33.6,0,0,1,7.87,1,24.54,24.54,0,0,1,6.94,2.76,5.83,5.83,0,0,1,2.64,2.71,5.71,5.71,0,0,1,.42,3.26,5.48,5.48,0,0,1-1.31,2.79,4.64,4.64,0,0,1-2.6,1.47,5.25,5.25,0,0,1-3.49-.7,17.3,17.3,0,0,0-4.89-2,21.55,21.55,0,0,0-5.19-.62,17.08,17.08,0,0,0-8.72,2.05,12.89,12.89,0,0,0-5.32,5.94A22.71,22.71,0,0,0,19,33.25a23.11,23.11,0,0,0,1.78,9.54,12.82,12.82,0,0,0,5.32,6,17.08,17.08,0,0,0,8.72,2.06,21.53,21.53,0,0,0,5.08-.63,19.82,19.82,0,0,0,5-1.93,5.83,5.83,0,0,1,3.6-.74A4.6,4.6,0,0,1,51.09,49a5.19,5.19,0,0,1,1.32,2.68,5.52,5.52,0,0,1-2.68,5.74,22.62,22.62,0,0,1-7,3A32.7,32.7,0,0,1,34.38,61.48Z" transform="translate(-5 -5.11)"/><path class="cls-6" d="M72.84,61.48a16.15,16.15,0,0,1-8-1.79,10.67,10.67,0,0,1-4.69-5.38,23.23,23.23,0,0,1-1.51-9V27.82a5.88,5.88,0,0,1,1.51-4.41,5.89,5.89,0,0,1,4.31-1.48,6,6,0,0,1,4.34,1.48,5.82,5.82,0,0,1,1.55,4.41V45.66a7.8,7.8,0,0,0,1.39,5.08,5.47,5.47,0,0,0,4.42,1.66A7,7,0,0,0,81.64,50a9,9,0,0,0,2.13-6.24v-16a5.88,5.88,0,0,1,1.52-4.41,5.86,5.86,0,0,1,4.3-1.48A6,6,0,0,1,94,23.41a5.88,5.88,0,0,1,1.51,4.41V55.35q0,6-5.66,6a5.57,5.57,0,0,1-4.26-1.55,6.12,6.12,0,0,1-1.48-4.42V50.16l1.17,3a13.86,13.86,0,0,1-4.89,6.13A13.05,13.05,0,0,1,72.84,61.48Z" transform="translate(-5 -5.11)"/><path class="cls-6" d="M123.24,61.48a20.07,20.07,0,0,1-8.95-1.79,11.51,11.51,0,0,1-5.35-5.19,18.74,18.74,0,0,1-1.75-8.61V31.31h-3.25a4.64,4.64,0,0,1-3.38-1.16A4.21,4.21,0,0,1,99.36,27a4.3,4.3,0,0,1,1.2-3.29,4.76,4.76,0,0,1,3.38-1.13h3.25V16.66a6,6,0,0,1,1.55-4.46,6,6,0,0,1,4.35-1.51,5.8,5.8,0,0,1,4.34,1.51,6.15,6.15,0,0,1,1.47,4.46v5.89h7.37a4.6,4.6,0,0,1,3.33,1.13A4.36,4.36,0,0,1,130.76,27a4.26,4.26,0,0,1-1.16,3.18,4.49,4.49,0,0,1-3.33,1.16H118.9V45.43a7,7,0,0,0,1.51,4.88q1.52,1.63,4.85,1.63a10,10,0,0,0,2.17-.23,12.86,12.86,0,0,1,1.86-.31,2.12,2.12,0,0,1,1.78.66c.47.49.7,1.56.7,3.21a8,8,0,0,1-.62,3.26,3.83,3.83,0,0,1-2.17,2,14.43,14.43,0,0,1-2.75.66A20.07,20.07,0,0,1,123.24,61.48Z" transform="translate(-5 -5.11)"/><path class="cls-6" d="M155.27,61.48A25.5,25.5,0,0,1,143.67,59a17.39,17.39,0,0,1-7.44-6.9,20.49,20.49,0,0,1-2.6-10.5,20.86,20.86,0,0,1,2.49-10.35,17.75,17.75,0,0,1,6.93-7,20.21,20.21,0,0,1,10.12-2.52,19.73,19.73,0,0,1,7.45,1.35,16.15,16.15,0,0,1,9.38,10,24.45,24.45,0,0,1,1.24,8,2.65,2.65,0,0,1-.93,2.21,4.29,4.29,0,0,1-2.71.74H143.25v-6h19.54l-1.24,1.09a13.38,13.38,0,0,0-.93-5.32,6.85,6.85,0,0,0-2.68-3.21,7.94,7.94,0,0,0-4.3-1.09,8.74,8.74,0,0,0-4.89,1.32,8.47,8.47,0,0,0-3.1,3.8,14.88,14.88,0,0,0-1.08,6v.62c0,3.93.91,6.82,2.75,8.68s4.56,2.8,8.18,2.8a22.73,22.73,0,0,0,4.26-.47,18.27,18.27,0,0,0,4.5-1.47,5.06,5.06,0,0,1,3.18-.58,3.43,3.43,0,0,1,2.17,1.27,4.31,4.31,0,0,1,.89,2.33,4.45,4.45,0,0,1-.58,2.6,5.38,5.38,0,0,1-2.32,2.13,22,22,0,0,1-5.94,2.21A29.31,29.31,0,0,1,155.27,61.48Z" transform="translate(-5 -5.11)"/><path class="cls-6" d="M26,134.74a3.33,3.33,0,0,1-2.25-.74,5.16,5.16,0,0,1-1.39-2.21L5.22,82.86a2.91,2.91,0,0,1,.27-2.75A3,3,0,0,1,8.09,79a3.14,3.14,0,0,1,2.09.66,5,5,0,0,1,1.32,2l16.05,47.07H24.84L41.2,81.93a5.78,5.78,0,0,1,1.32-2.21A2.89,2.89,0,0,1,44.61,79a2.69,2.69,0,0,1,2,.73,6.16,6.16,0,0,1,1.27,2.21L64,128.77h-2.4L77.8,81.7a4,4,0,0,1,1.2-2,3.13,3.13,0,0,1,2.13-.7,2.78,2.78,0,0,1,2.41,1.08,2.92,2.92,0,0,1,.15,2.79L66.47,131.79A5.43,5.43,0,0,1,65.12,134a3.3,3.3,0,0,1-2.29.74,3.17,3.17,0,0,1-2.21-.74,6.08,6.08,0,0,1-1.43-2.21L43.6,86.9h1.71L29.56,131.79A5.74,5.74,0,0,1,28.25,134,3.16,3.16,0,0,1,26,134.74Z" transform="translate(-5 -5.11)"/><path class="cls-6" d="M105.4,134.89a21,21,0,0,1-10.27-2.36,16.45,16.45,0,0,1-6.67-6.71,23.88,23.88,0,0,1,0-20.66,17.45,17.45,0,0,1,6.4-6.87,17.75,17.75,0,0,1,9.42-2.48,17.42,17.42,0,0,1,6.82,1.28,14.25,14.25,0,0,1,5.16,3.69,16.36,16.36,0,0,1,3.25,5.81,24.5,24.5,0,0,1,1.13,7.68,2.25,2.25,0,0,1-.7,1.82,3.06,3.06,0,0,1-2,.58h-27v-4.11h25.51l-1.24,1a18,18,0,0,0-1.24-7.09,9.71,9.71,0,0,0-3.61-4.46,10.53,10.53,0,0,0-5.93-1.55,11.9,11.9,0,0,0-6.7,1.82,11.17,11.17,0,0,0-4.15,5,18.66,18.66,0,0,0-1.4,7.48v.47q0,7.13,3.45,10.85t9.81,3.72a20.25,20.25,0,0,0,5.23-.69,17.43,17.43,0,0,0,5.08-2.33,3.57,3.57,0,0,1,2-.66,2.26,2.26,0,0,1,1.44.54,2.57,2.57,0,0,1,.73,1.24,2.47,2.47,0,0,1-.15,1.59,3.24,3.24,0,0,1-1.36,1.48,19.27,19.27,0,0,1-6,2.87A24.82,24.82,0,0,1,105.4,134.89Z" transform="translate(-5 -5.11)"/><path class="cls-6" d="M141.53,134.89a15.48,15.48,0,0,1-6.94-1.51,12.28,12.28,0,0,1-4.84-4.15,10.26,10.26,0,0,1-1.79-5.89,9.54,9.54,0,0,1,2.14-6.59q2.13-2.4,7.05-3.41a70.59,70.59,0,0,1,13.46-1h3.49v4.11h-3.42a65.07,65.07,0,0,0-9.88.58q-3.62.58-5,2a5.25,5.25,0,0,0-1.44,4,6.74,6.74,0,0,0,2.21,5.2,8.61,8.61,0,0,0,6,2,10.15,10.15,0,0,0,5.47-1.47,10.34,10.34,0,0,0,3.72-4,12.34,12.34,0,0,0,1.36-5.89v-8.84q0-4.82-1.94-6.94t-6.36-2.14a22,22,0,0,0-5.43.7,28.51,28.51,0,0,0-5.74,2.25,2.74,2.74,0,0,1-1.86.35,2.19,2.19,0,0,1-1.24-.81,2.81,2.81,0,0,1-.54-1.44,2.69,2.69,0,0,1,.35-1.59,3.06,3.06,0,0,1,1.36-1.24,30.53,30.53,0,0,1,6.74-2.48,27.9,27.9,0,0,1,6.36-.78,18,18,0,0,1,8.07,1.59,10.22,10.22,0,0,1,4.73,4.81,19.14,19.14,0,0,1,1.55,8.26v21a3.58,3.58,0,0,1-.74,2.41,2.68,2.68,0,0,1-2.13.85,2.9,2.9,0,0,1-2.25-.85,3.44,3.44,0,0,1-.78-2.41v-6h.7a11.41,11.41,0,0,1-2.36,5,12,12,0,0,1-4.31,3.25A13.63,13.63,0,0,1,141.53,134.89Z" transform="translate(-5 -5.11)"/><path class="cls-6" d="M185.89,134.89a15.62,15.62,0,0,1-7.41-1.59,10,10,0,0,1-4.45-4.65,17,17,0,0,1-1.48-7.48V101.4h-5.19a2.84,2.84,0,0,1-2-.66,2.41,2.41,0,0,1-.7-1.82,2.3,2.3,0,0,1,.7-1.79,3,3,0,0,1,2-.62h5.19V87.6a3.15,3.15,0,0,1,.85-2.37,3.26,3.26,0,0,1,2.33-.81,3.11,3.11,0,0,1,2.29.81,3.21,3.21,0,0,1,.81,2.37v8.91h9.77a3,3,0,0,1,2,.62,2.3,2.3,0,0,1,.7,1.79,2.41,2.41,0,0,1-.7,1.82,2.84,2.84,0,0,1-2,.66h-9.77v19.15c0,3,.62,5.18,1.86,6.71s3.26,2.28,6.05,2.28a8.85,8.85,0,0,0,2.52-.31,6.66,6.66,0,0,1,1.75-.31,1.28,1.28,0,0,1,1.16.47,2.87,2.87,0,0,1,.47,1.86,4.18,4.18,0,0,1-.35,1.71,2,2,0,0,1-1.21,1.08,17,17,0,0,1-2.44.58A15.83,15.83,0,0,1,185.89,134.89Z" transform="translate(-5 -5.11)"/><path class="cls-6" d="M201.48,134.74a3,3,0,0,1-2.33-.85,3.44,3.44,0,0,1-.78-2.41V82.17a3.29,3.29,0,0,1,.78-2.37,3.07,3.07,0,0,1,2.33-.81,3.25,3.25,0,0,1,2.32.81,3.11,3.11,0,0,1,.85,2.37v22.72h-1A12.79,12.79,0,0,1,209,98.1a15.78,15.78,0,0,1,8.49-2.29,15.56,15.56,0,0,1,7.48,1.63,10.14,10.14,0,0,1,4.46,4.93,20.48,20.48,0,0,1,1.47,8.33v20.78a3.36,3.36,0,0,1-.81,2.41,3,3,0,0,1-2.29.85,3.14,3.14,0,0,1-2.36-.85,3.32,3.32,0,0,1-.82-2.41V111.09c0-3.52-.69-6.09-2.05-7.72s-3.56-2.44-6.56-2.44a10.9,10.9,0,0,0-8.26,3.22,11.93,11.93,0,0,0-3.06,8.57v18.76Q204.65,134.74,201.48,134.74Z" transform="translate(-5 -5.11)"/><path class="cls-6" d="M259.4,134.89a21,21,0,0,1-10.28-2.36,16.51,16.51,0,0,1-6.67-6.71,23.93,23.93,0,0,1,0-20.66,17.5,17.5,0,0,1,6.39-6.87,17.81,17.81,0,0,1,9.43-2.48,17.42,17.42,0,0,1,6.82,1.28,14.25,14.25,0,0,1,5.16,3.69,16.36,16.36,0,0,1,3.25,5.81,24.5,24.5,0,0,1,1.13,7.68,2.25,2.25,0,0,1-.7,1.82,3.08,3.08,0,0,1-2,.58h-27v-4.11h25.51l-1.24,1a18.15,18.15,0,0,0-1.24-7.09,9.71,9.71,0,0,0-3.61-4.46,10.55,10.55,0,0,0-5.93-1.55,11.93,11.93,0,0,0-6.71,1.82,11.23,11.23,0,0,0-4.15,5,18.66,18.66,0,0,0-1.39,7.48v.47q0,7.13,3.45,10.85t9.81,3.72a20.31,20.31,0,0,0,5.23-.69,17.66,17.66,0,0,0,5.08-2.33,3.53,3.53,0,0,1,2-.66,2.21,2.21,0,0,1,1.43.54,2.58,2.58,0,0,1,.74,1.24,2.41,2.41,0,0,1-.16,1.59,3.16,3.16,0,0,1-1.35,1.48,19.37,19.37,0,0,1-6.05,2.87A24.87,24.87,0,0,1,259.4,134.89Z" transform="translate(-5 -5.11)"/><path class="cls-6" d="M286.85,134.74a3.15,3.15,0,0,1-2.37-.85,3.36,3.36,0,0,1-.81-2.41V99.15a3.35,3.35,0,0,1,.77-2.37,3,3,0,0,1,2.25-.81,3.11,3.11,0,0,1,2.29.81,3.23,3.23,0,0,1,.81,2.37v6.28H289a12.29,12.29,0,0,1,4.73-7.06,15.27,15.27,0,0,1,8.6-2.63,2.51,2.51,0,0,1,1.87.5,2.67,2.67,0,0,1,.77,2,2.72,2.72,0,0,1-.62,2.09,3.23,3.23,0,0,1-2.17.93l-1.24.16q-5.28.46-8.1,3.37a10.9,10.9,0,0,0-2.83,8v18.76a3.37,3.37,0,0,1-.82,2.41A3.14,3.14,0,0,1,286.85,134.74Z" transform="translate(-5 -5.11)"/></g></g></svg>