<svg xmlns="http://www.w3.org/2000/svg" xmlns:xlink="http://www.w3.org/1999/xlink" viewBox="0 0 38 22.64"><defs><style>.cls-1{isolation:isolate;}.cls-2{fill:url(#Degradado_sin_nombre_7);}.cls-3{fill:#dfdfdf;mix-blend-mode:soft-light;}.cls-4{fill:#1a1a1a;}.cls-5{fill:#e44142;}</style><linearGradient id="Degradado_sin_nombre_7" x1="20" y1="31.32" x2="20" y2="8.68" gradientUnits="userSpaceOnUse"><stop offset="0" stop-color="#fefdfa"/><stop offset="1" stop-color="#dfdfdf"/></linearGradient></defs><g class="cls-1"><g id="Layer_1" data-name="Layer 1"><path class="cls-2" d="M27.42,13.43S26.09,8,19.14,8.76s-6.32,5.8-6.32,5.8S10.38,11.94,8,12.15s-6.32,1-6.89,6,2.07,8.7,9.46,8.74c0,0,2,3.93,5.17,4.35A7.57,7.57,0,0,0,22,29.17a6.49,6.49,0,0,0,6.45,1.74C32.65,29.64,32,26.14,32,26.14s7.93-.61,6.91-7.73S32,11.16,27.42,13.43Z" transform="translate(-1 -8.68)"/><path class="cls-3" d="M1.07,19.24c.57-5,4.47-5.81,6.89-6s4.86,2.41,4.86,2.41-.63-5,6.32-5.8,8.28,4.67,8.28,4.67c4.61-2.27,10.47-2.14,11.49,5,0,.23.06.45.07.66a8,8,0,0,0-.07-1.74c-1-7.12-6.88-7.25-11.49-5,0,0-1.33-5.45-8.28-4.67s-6.32,5.8-6.32,5.8S10.38,11.94,8,12.15s-6.32,1-6.89,6A10.28,10.28,0,0,0,1,20C1,19.74,1.05,19.49,1.07,19.24Z" transform="translate(-1 -8.68)"/><path class="cls-4" d="M11.66,19.73h0c-1.35,0-2.26-1.64-2.3-1.71a.36.36,0,0,1,.15-.49.36.36,0,0,1,.48.14c.21.38.91,1.34,1.67,1.34h0c.69,0,1.29-.8,1.67-1.48a.36.36,0,1,1,.63.35C13.27,19.11,12.5,19.73,11.66,19.73Z" transform="translate(-1 -8.68)"/><path class="cls-4" d="M30.18,20.28a4.49,4.49,0,0,1-3-1.6.36.36,0,0,1,.56-.46,3.76,3.76,0,0,0,2.52,1.34,2.54,2.54,0,0,0,1.89-1.34.36.36,0,0,1,.5-.1.37.37,0,0,1,.1.5,3.22,3.22,0,0,1-2.46,1.66Z" transform="translate(-1 -8.68)"/><circle class="cls-4" cx="20.37" cy="11.41" r="0.83"/><path class="cls-4" d="M21.49,23.42a5.38,5.38,0,0,1-2.11-.49.36.36,0,0,1,.32-.65h0s2.08,1,3.3-.12a.35.35,0,0,1,.5,0,.36.36,0,0,1,0,.51A2.86,2.86,0,0,1,21.49,23.42Z" transform="translate(-1 -8.68)"/><path class="cls-5" d="M12,23.05a1.51,1.51,0,0,1-1.64,1.34,1.48,1.48,0,0,1-1.65-1.5c0-.9,1-1.3,1.79-1.27A1.53,1.53,0,0,1,12,23.05Z" transform="translate(-1 -8.68)"/><path class="cls-5" d="M32,22.77a1.67,1.67,0,0,1-3.29.22c-.06-.91.87-1.42,1.64-1.47A1.53,1.53,0,0,1,32,22.77Z" transform="translate(-1 -8.68)"/></g></g></svg>